<svg xmlns="http://www.w3.org/2000/svg" xmlns:xlink="http://www.w3.org/1999/xlink" width="500" zoomAndPan="magnify" viewBox="0 0 375 374.999991" height="500" preserveAspectRatio="xMidYMid meet" version="1.0"><defs><g/></defs><g fill="#ffcc00" fill-opacity="1"><g transform="translate(10.195316, 229.124985)"><g><path d="M 83.453125 0 L 62.78125 0 L 28.1875 -52.375 L 28.1875 0 L 7.5 0 L 7.5 -84.90625 L 28.1875 -84.90625 L 62.78125 -32.296875 L 62.78125 -84.90625 L 83.453125 -84.90625 Z M 83.453125 0 "/></g></g></g><g fill="#000000" fill-opacity="1"><g transform="translate(101.144529, 229.124985)"><g><path d="M 17.90625 -74.5 C 14.269531 -74.5 11.300781 -75.566406 9 -77.703125 C 6.707031 -79.847656 5.5625 -82.492188 5.5625 -85.640625 C 5.5625 -88.859375 6.707031 -91.535156 9 -93.671875 C 11.300781 -95.816406 14.269531 -96.890625 17.90625 -96.890625 C 21.445312 -96.890625 24.367188 -95.816406 26.671875 -93.671875 C 28.972656 -91.535156 30.125 -88.859375 30.125 -85.640625 C 30.125 -82.492188 28.972656 -79.847656 26.671875 -77.703125 C 24.367188 -75.566406 21.445312 -74.5 17.90625 -74.5 Z M 28.1875 -67.484375 L 28.1875 0 L 7.5 0 L 7.5 -67.484375 Z M 28.1875 -67.484375 "/></g></g></g><g fill="#000000" fill-opacity="1"><g transform="translate(136.824539, 229.124985)"><g><path d="M 26.859375 -17.046875 L 56.125 -17.046875 L 56.125 0 L 3.75 0 L 3.75 -16.453125 L 31.8125 -50.4375 L 3.984375 -50.4375 L 3.984375 -67.484375 L 55.515625 -67.484375 L 55.515625 -51.046875 Z M 26.859375 -17.046875 "/></g></g></g><g fill="#000000" fill-opacity="1"><g transform="translate(196.815345, 229.124985)"><g><path d="M 3.390625 -33.859375 C 3.390625 -40.796875 4.695312 -46.882812 7.3125 -52.125 C 9.9375 -57.375 13.503906 -61.40625 18.015625 -64.21875 C 22.535156 -67.039062 27.578125 -68.453125 33.140625 -68.453125 C 37.898438 -68.453125 42.070312 -67.484375 45.65625 -65.546875 C 49.25 -63.617188 52.007812 -61.082031 53.9375 -57.9375 L 53.9375 -67.484375 L 74.625 -67.484375 L 74.625 0 L 53.9375 0 L 53.9375 -9.5625 C 51.925781 -6.414062 49.125 -3.875 45.53125 -1.9375 C 41.945312 0 37.773438 0.96875 33.015625 0.96875 C 27.535156 0.96875 22.535156 -0.460938 18.015625 -3.328125 C 13.503906 -6.191406 9.9375 -10.265625 7.3125 -15.546875 C 4.695312 -20.828125 3.390625 -26.929688 3.390625 -33.859375 Z M 53.9375 -33.75 C 53.9375 -38.90625 52.503906 -42.972656 49.640625 -45.953125 C 46.785156 -48.941406 43.300781 -50.4375 39.1875 -50.4375 C 35.070312 -50.4375 31.582031 -48.960938 28.71875 -46.015625 C 25.863281 -43.078125 24.4375 -39.023438 24.4375 -33.859375 C 24.4375 -28.703125 25.863281 -24.609375 28.71875 -21.578125 C 31.582031 -18.554688 35.070312 -17.046875 39.1875 -17.046875 C 43.300781 -17.046875 46.785156 -18.535156 49.640625 -21.515625 C 52.503906 -24.503906 53.9375 -28.582031 53.9375 -33.75 Z M 53.9375 -33.75 "/></g></g></g><g fill="#000000" fill-opacity="1"><g transform="translate(278.939847, 229.124985)"><g><path d="M 28.1875 -56.25 C 30.601562 -59.957031 33.625 -62.878906 37.25 -65.015625 C 40.882812 -67.148438 44.914062 -68.21875 49.34375 -68.21875 L 49.34375 -46.328125 L 43.671875 -46.328125 C 38.503906 -46.328125 34.628906 -45.21875 32.046875 -43 C 29.472656 -40.78125 28.1875 -36.890625 28.1875 -31.328125 L 28.1875 0 L 7.5 0 L 7.5 -67.484375 L 28.1875 -67.484375 Z M 28.1875 -56.25 "/></g></g></g><g fill="#000000" fill-opacity="1"><g transform="translate(330.706106, 229.124985)"><g><path d="M 17.171875 0.96875 C 13.546875 0.96875 10.582031 -0.0976562 8.28125 -2.234375 C 5.988281 -4.367188 4.84375 -7.007812 4.84375 -10.15625 C 4.84375 -13.382812 5.988281 -16.085938 8.28125 -18.265625 C 10.582031 -20.441406 13.546875 -21.53125 17.171875 -21.53125 C 20.722656 -21.53125 23.644531 -20.441406 25.9375 -18.265625 C 28.238281 -16.085938 29.390625 -13.382812 29.390625 -10.15625 C 29.390625 -7.007812 28.238281 -4.367188 25.9375 -2.234375 C 23.644531 -0.0976562 20.722656 0.96875 17.171875 0.96875 Z M 17.171875 0.96875 "/></g></g></g></svg>