<svg xmlns="http://www.w3.org/2000/svg" xmlns:xlink="http://www.w3.org/1999/xlink" width="500" zoomAndPan="magnify" viewBox="0 0 375 374.999991" height="500" preserveAspectRatio="xMidYMid meet" version="1.0"><defs><g/></defs><g fill="#ffcc00" fill-opacity="1"><g transform="translate(-7.276881, 318.551478)"><g><path d="M 259.953125 0 L 195.53125 0 L 87.78125 -163.125 L 87.78125 0 L 23.359375 0 L 23.359375 -264.484375 L 87.78125 -264.484375 L 195.53125 -100.59375 L 195.53125 -264.484375 L 259.953125 -264.484375 Z M 259.953125 0 "/></g></g></g><g fill="#ffffff" fill-opacity="1"><g transform="translate(276.031757, 318.551478)"><g><path d="M 53.5 3.015625 C 42.195312 3.015625 32.960938 -0.3125 25.796875 -6.96875 C 18.640625 -13.625 15.0625 -21.847656 15.0625 -31.640625 C 15.0625 -41.691406 18.640625 -50.109375 25.796875 -56.890625 C 32.960938 -63.671875 42.195312 -67.0625 53.5 -67.0625 C 64.550781 -67.0625 73.65625 -63.671875 80.8125 -56.890625 C 87.96875 -50.109375 91.546875 -41.691406 91.546875 -31.640625 C 91.546875 -21.847656 87.96875 -13.625 80.8125 -6.96875 C 73.65625 -0.3125 64.550781 3.015625 53.5 3.015625 Z M 53.5 3.015625 "/></g></g></g></svg>